<?xml version="1.0" encoding="utf-8"?>
<!-- Svg Vector Icons : http://www.onlinewebfonts.com/icon -->
<!DOCTYPE svg PUBLIC "-//W3C//DTD SVG 1.1//EN" "http://www.w3.org/Graphics/SVG/1.1/DTD/svg11.dtd">
<svg version="1.1" xmlns="http://www.w3.org/2000/svg" xmlns:xlink="http://www.w3.org/1999/xlink" x="0px" y="0px" viewBox="0 0 1000 1000" enable-background="new 0 0 1000 1000" xml:space="preserve">
<metadata> Svg Vector Icons : http://www.onlinewebfonts.com/icon </metadata>
<g><g transform="translate(0.000000,511.000000) scale(0.100000,-0.100000)"><path d="M8143.1,4377.8l-658.4-658.4l26.8-210.5l24.8-212.6L6231.9,1991.9L4927.6,687.5l-132.1,20.6c-600.6,88.8-1143.4-466.4-1044.3-1067c66-404.5,365.3-707.9,765.7-780.2c472.6-84.6,939.1,220.8,1062.9,693.5c35.1,134.2,39.2,291,12.4,404.5l-16.5,76.4L6880,1339.7l1306.4,1306.4l212.6-24.8l210.5-26.8l658.4,658.4c361.2,361.2,646,658.4,631.5,662.5c-14.5,2.1-235.3,31-489.2,66c-253.8,33-466.4,64-470.6,70.2c-4.1,4.1-37.1,216.7-70.2,470.6c-33,251.8-61.9,472.6-66,487.1C8801.5,5023.8,8504.3,4738.9,8143.1,4377.8z"/><path d="M4455,4361.3c-670.8-45.4-1221.8-187.8-1785.3-462.3c-460.2-222.9-821.4-476.8-1184.7-831.7c-695.5-679-1129-1483.9-1314.7-2449.8C104.3,281,79.5-377.4,118.7-718c119.7-1023.7,551.1-1942.1,1254.8-2668.6c740.9-767.8,1655.2-1230.1,2718.1-1372.5c392.1-53.7,1034-35.1,1415.8,39.2c968,185.8,1762.6,613,2449.8,1314.7c235.3,241.5,365.3,400.4,546.9,679c891.6,1360.1,994.8,3102,266.2,4557.1L8655,2062.1l-369.4-369.4l-369.4-369.4l74.3-171.3c206.4-480.9,295.1-1052.6,258-1634.6c-55.7-858.6-427.2-1661.4-1052.6-2278.5c-528.3-524.2-1102.1-827.6-1874-990.7c-253.8-53.7-998.9-53.7-1289.9,2.1c-968,179.6-1832.7,757.4-2373.5,1587.1c-231.2,357.1-408.6,792.5-509.8,1254.8c-41.3,187.8-45.4,272.4-45.4,689.3c0,416.9,4.1,501.5,45.4,691.4c165.1,761.6,493.3,1358,1040.2,1890.5c297.2,291,559.3,472.6,945.3,654.2c516,245.6,961.8,344.7,1547.9,344.7c491.2,0,906-78.4,1327.1-251.8l204.3-82.6l359.1,357.1c198.1,198.1,359.1,367.4,359.1,375.6c0,24.8-518,268.3-732.7,344.7C5680.9,4287,4952.4,4394.3,4455,4361.3z"/><path d="M4279.5,2472.8C3274.4,2326.3,2417.9,1606,2093.9,635.9C1994.8,338.8,1968,157.1,1968-218.5c0-383.9,26.8-546.9,134.2-868.9c140.3-416.9,328.2-710,658.4-1040.2c132.1-132.1,305.5-282.8,386-334.3c311.7-206.4,710-367.4,1071.2-433.4c185.8-33,722.4-33,908.1,0C6240.2-2693.1,7105-1855.2,7334.1-755.1c47.5,225,61.9,637.7,33,866.8c-22.7,175.4-97,505.6-117.6,526.3c-6.2,4.1-181.6-163-390.1-371.5l-381.8-381.8v-136.2c0-456.1-212.6-937-559.3-1269.3c-227-214.6-443.7-340.5-755.4-435.5c-161-47.5-214.6-53.7-480.9-53.7c-357,0-524.2,37.1-817.3,183.7C3220.8-1508.4,2828.6-829.4,2872-107.1c14.5,245.6,57.8,416.9,158.9,633.6c109.4,235.3,216.7,385.9,406.6,567.6c326.1,311.7,763.6,493.3,1186.7,493.3h150.7l381.8,381.8c208.5,208.5,375.6,386,369.4,392.1c-18.6,16.5-330.2,90.8-485,113.5C4871.9,2497.6,4452.9,2497.6,4279.5,2472.8z"/></g></g>
</svg>